<?xml version="1.0" encoding="UTF-8" standalone="no"?>
<!-- Created with Inkscape (http://www.inkscape.org/) -->

<svg
   width="174.05771mm"
   height="167.47713mm"
   viewBox="0 0 174.05771 167.47713"
   version="1.1"
   id="svg1"
   xml:space="preserve"
   inkscape:version="1.3 (0e150ed6c4, 2023-07-21)"
   sodipodi:docname="BeArt.svg"
   inkscape:export-filename="BeArtLogo.svg"
   inkscape:export-xdpi="17.104378"
   inkscape:export-ydpi="17.104378"
   xmlns:inkscape="http://www.inkscape.org/namespaces/inkscape"
   xmlns:sodipodi="http://sodipodi.sourceforge.net/DTD/sodipodi-0.dtd"
   xmlns="http://www.w3.org/2000/svg"
   xmlns:svg="http://www.w3.org/2000/svg"><sodipodi:namedview
     id="namedview1"
     pagecolor="#ffffff"
     bordercolor="#000000"
     borderopacity="0.25"
     inkscape:showpageshadow="2"
     inkscape:pageopacity="0.0"
     inkscape:pagecheckerboard="0"
     inkscape:deskcolor="#d1d1d1"
     inkscape:document-units="mm"
     inkscape:zoom="1.0343421"
     inkscape:cx="297.29043"
     inkscape:cy="589.26347"
     inkscape:window-width="1920"
     inkscape:window-height="1017"
     inkscape:window-x="-8"
     inkscape:window-y="-8"
     inkscape:window-maximized="1"
     inkscape:current-layer="layer3"
     showguides="false" /><defs
     id="defs1" /><g
     inkscape:groupmode="layer"
     id="layer2"
     inkscape:label="Capa 2"
     style="display:inline"
     transform="translate(-17.154061,-60.588564)"><ellipse
       style="display:inline;fill:#326a99;fill-opacity:1;stroke:none;stroke-width:0.241029;stroke-opacity:0.52549"
       id="path1"
       cx="104.18292"
       cy="144.32712"
       rx="87.028862"
       ry="83.738556" /></g><path
     style="fill:#ffffff;fill-opacity:1;fill-rule:evenodd;stroke:#ffffff;stroke-width:0.256;stroke-dasharray:none;stroke-opacity:0.52549"
     d="m 58.000323,34.462288 c -7.376285,-7.321918 -13.291327,-5.99815 -18.630328,-1.266139 -6.096527,7.119637 -7.739548,16.345557 7.144639,21.705237 -5.883036,3.35823 -11.730823,6.85746 -16.278926,15.55542 -5.776524,2.9418 -12.153513,4.18228 -16.007614,12.57095 8.169456,-5.70412 15.223962,-4.05585 22.041284,-0.63307 0.591902,8.32254 3.307331,14.87057 8.664695,19.448824 0,-4.589364 1.074322,-6.252664 2.224604,-8.049034 -0.20462,12.035084 7.609537,18.830514 12.822204,26.085644 -1.622225,-3.20018 -2.425351,-7.05563 -2.342312,-11.62002 6.818751,12.67495 16.586656,16.79735 26.76979,19.71559 -7.216951,-7.50022 -13.420767,-15.5207 -8.229899,-29.392514 4.52448,6.788784 6.425802,10.577884 18.233779,17.395224 10.561641,5.07712 18.513041,9.43127 24.905381,12.90167 9.74425,-8.03433 16.56496,-18.31754 21.88611,-29.754264 2.22374,3.175104 1.79383,6.615564 0.63307,10.129114 3.28401,-5.29974 8.75539,-5.98169 6.3307,-23.333134 6.28806,-0.41414 11.57905,0.76706 14.47015,5.78806 -0.10755,-7.71725 -6.45419,-12.18967 -12.75182,-15.55542 -2.46517,-7.05738 -5.34647,-13.92057 -12.84227,-18.63032 7.50636,-5.86148 13.17824,-13.20715 2.44184,-23.694889 -6.61828,-6.355174 -14.08866,-5.16794 -16.55024,0.904386 C 112.11269,17.868901 101.29021,16.280392 90.467739,16.193712 76.509201,16.854749 68.48919,21.578989 60.894354,26.594138 c 2.895334,-0.553107 5.46268,-0.745427 7.506396,-0.361754 -4.904129,1.914078 -7.662005,5.06638 -10.400427,8.229904 z"
     id="path7"
     sodipodi:nodetypes="cccccccccccccccccccccccccc" /><g
     inkscape:groupmode="layer"
     id="layer3"
     inkscape:label="Capa 3"
     transform="translate(-17.154061,-60.588564)"><path
       style="fill:#326a99;fill-opacity:1;fill-rule:evenodd;stroke:#48afc6;stroke-width:0.256;stroke-dasharray:none;stroke-opacity:0.52549"
       d="m 114.1127,129.59949 c 2.35946,-6.13458 8.15154,-6.38552 13.91454,-6.24058 9.26308,0.26644 13.9499,3.102 13.49338,8.82505 -0.94204,4.63765 -5.35271,5.91791 -9.97615,7.73792 -1.1964,4.08922 -0.89565,7.18378 -1.1511,10.67959 0.0466,5.11202 1.69857,6.56804 3.91999,8.66645 2.73936,2.01319 7.04616,-1.06387 11.33429,-6.08197 3.43214,-4.72145 4.03965,-7.00798 5.84912,-10.57819 -0.24814,4.04005 -0.93422,7.75675 -2.77633,11.19119 -2.48993,4.13795 -5.32126,6.97694 -7.77537,9.08086 -2.66914,1.85909 -5.47536,2.20742 -8.31346,1.87006 -1.94011,-0.68627 -3.12706,-1.74369 -4.28463,-3.02116 -3.43064,1.95844 -7.21107,3.01739 -11.83068,1.91849 -5.83601,-1.24543 -9.93424,-4.51826 -13.74918,-8.1216 -1.73279,-1.53766 -3.210598,-3.84028 -4.604379,-6.39497 -0.969156,-2.52874 -1.409175,-4.13785 -1.854541,-5.94733 2.989201,4.69917 6.79825,8.73272 12.02254,11.8307 3.92489,2.67214 7.8189,4.75759 11.57489,4.22067 1.93234,-0.41413 4.74223,-1.83901 6.52287,-7.80185 0.79033,-3.92742 0.82419,-7.58352 0.064,-11.51094 -7.04528,-2.26401 -13.26539,-5.32832 -12.3798,-10.32239 z"
       id="path4"
       sodipodi:nodetypes="ccccccccccccccccccccc" /><path
       style="fill:#326a99;fill-opacity:0.890196;fill-rule:evenodd;stroke:#48afc6;stroke-width:0.256;stroke-dasharray:none;stroke-opacity:0.52549"
       d="m 96.226552,117.38916 c 4.310898,-1.65634 8.621808,-3.3647 12.932708,0.63307 0.0326,-3.80008 0.57027,-7.93682 -5.33587,-7.77771 -5.516618,0.24988 -6.938934,3.82591 -7.596838,7.14464 z"
       id="path5"
       sodipodi:nodetypes="cccc" /><path
       style="fill:#326a99;fill-opacity:0.890196;fill-rule:evenodd;stroke:#48afc6;stroke-width:0.256;stroke-dasharray:none;stroke-opacity:0.52549"
       d="m 137.08923,120.32708 c 2.82992,-2.4447 4.12344,-3.13807 7.43148,1.1092 -0.15325,-2.84836 0.38388,-8.28584 -3.88886,-8.38817 -5.50147,0.42656 -3.69034,4.55153 -3.54262,7.27897 z"
       id="path6"
       sodipodi:nodetypes="cccc" /><path
       style="fill:#326a99;fill-opacity:0.890196;fill-rule:evenodd;stroke:#48afc6;stroke-width:0.256;stroke-dasharray:none;stroke-opacity:0.52549"
       d="m 67.850598,99.866107 c -1.561882,1.941063 -3.408263,4.159773 -3.709079,6.674043 -0.264085,3.36329 2.800823,5.12331 3.25822,3.6141 0.447131,-1.93475 -1.868831,-2.19166 -1.659481,-4.34082 z"
       id="path8"
       sodipodi:nodetypes="ccccc" /><path
       style="fill:#326a99;fill-opacity:0.890196;fill-rule:evenodd;stroke:#48afc6;stroke-width:0.256;stroke-dasharray:none;stroke-opacity:0.52549"
       d="m 83.487233,96.883748 c 2.789773,1.133822 5.411851,3.333132 7.768944,5.115972 -1.366821,-1.79669 -2.750224,-3.265339 -4.680629,-4.860173 4.970654,0.703701 7.26534,2.833872 10.819798,4.348573 -3.825466,-2.382456 -7.155197,-6.162713 -13.908113,-4.604372 z"
       id="path9"
       sodipodi:nodetypes="ccccc" /><path
       style="fill:#326a99;fill-opacity:0.890196;fill-rule:evenodd;stroke:#48afc6;stroke-width:0.256;stroke-dasharray:none;stroke-opacity:0.52549"
       d="m 96.1803,95.157106 c 3.362827,1.407666 5.46419,3.866551 7.86581,6.075224 -1.34289,-1.840709 -2.34874,-3.666729 -4.0398,-5.243876 9.02956,-1.893731 11.86594,3.149791 16.82974,5.947316 -4.11198,-3.347801 -3.93775,-8.377531 -20.65575,-6.778664 z"
       id="path10"
       sodipodi:nodetypes="ccccc" /><path
       style="fill:#326a99;fill-opacity:0.890196;fill-rule:evenodd;stroke:#48afc6;stroke-width:0.256;stroke-dasharray:none;stroke-opacity:0.52549"
       d="m 118.05109,96.37215 c 2.86273,2.255765 4.94521,4.97969 6.97051,7.73791 -0.82081,-1.78417 -2.30388,-3.43589 -2.36614,-5.371771 4.65074,-0.382264 8.40931,3.993701 12.59809,6.075221 -5.0739,-3.04577 -6.47374,-7.382419 -17.20246,-8.44136 z"
       id="path11"
       sodipodi:nodetypes="ccccc" /><path
       style="fill:#326a99;fill-opacity:0.890196;fill-rule:evenodd;stroke:#48afc6;stroke-width:0.256;stroke-dasharray:none;stroke-opacity:0.52549"
       d="m 131.48052,96.627949 c 4.57371,2.789989 8.74384,5.933111 11.95859,9.912201 -1.61051,-2.37569 -3.07631,-4.54437 -5.37178,-6.586817 -2.22758,-1.928474 -4.39121,-2.271882 -6.58681,-3.325384 z"
       id="path12"
       sodipodi:nodetypes="cccc" /><path
       style="fill:none;fill-opacity:1;fill-rule:evenodd;stroke:#326a99;stroke-width:0.256;stroke-dasharray:none;stroke-opacity:0.52549"
       d="m 149.77012,99.953333 c 2.41669,2.999097 2.01521,6.254397 0.70345,9.592447"
       id="path13"
       sodipodi:nodetypes="cc" /><path
       style="fill:#ffffff;fill-opacity:1;fill-rule:evenodd;stroke:none;stroke-width:0.256;stroke-dasharray:none;stroke-opacity:0.52549"
       d="m 46.7567,159.89525 c 6.253187,47.63579 54.39614,55.25209 85.82612,53.17783 -7.9879,-1.23683 -15.43005,-3.0194 -21.88611,-5.78806 3.49522,0.41652 6.53723,-0.22444 9.52867,-0.98339 -0.76788,-0.14873 -2.46356,-0.18361 -3.11614,-0.44765 0.89527,-0.11176 1.97207,-0.49462 2.33777,-0.78291 C 61.905205,192.4058 56.777184,174.94391 46.7567,159.89525 Z"
       id="path14"
       sodipodi:nodetypes="ccccccc" /><path
       style="fill:#ffffff;fill-opacity:1;fill-rule:evenodd;stroke:none;stroke-width:0.256;stroke-dasharray:none;stroke-opacity:0.52549"
       d="m 164.86225,174.7105 c -7.0027,13.56904 -12.89337,21.57793 -18.54541,28.39365 4.21208,-1.39333 9.14095,-4.42503 15.73162,-11.25515 0.32218,4.12569 0.35746,9.21881 0.022,15.97524 2.81378,-2.76972 8.34072,-7.11451 11.1545,-10.88542 -0.90699,-7.59488 -5.78667,-14.96724 -8.36266,-22.22832 z"
       id="path15"
       sodipodi:nodetypes="cccccc" /></g></svg>
